<?xml version="1.0" standalone="no"?>
<!DOCTYPE svg PUBLIC "-//W3C//DTD SVG 20010904//EN"
 "http://www.w3.org/TR/2001/REC-SVG-20010904/DTD/svg10.dtd">
<svg version="1.0" xmlns="http://www.w3.org/2000/svg"
 width="960.000000pt" height="960.000000pt" viewBox="0 0 960.000000 960.000000"
 preserveAspectRatio="xMidYMid meet">
<metadata>
Created by potrace 1.16, written by Peter Selinger 2001-2019
</metadata>
<g transform="translate(0.000000,960.000000) scale(0.100000,-0.100000)"
fill="#000000" stroke="none">
<path d="M2668 8654 c-4 -3 -37 -7 -75 -9 -110 -5 -199 -28 -233 -60 -25 -24
-30 -37 -30 -77 0 -38 -4 -50 -17 -54 -10 -3 -26 -10 -36 -15 -14 -8 -580 -14
-760 -9 -22 0 -44 -4 -51 -9 -6 -5 -54 -13 -106 -17 -52 -3 -105 -13 -117 -20
-12 -8 -29 -14 -37 -14 -8 0 -22 -7 -31 -17 -15 -14 -16 -32 -10 -143 l7 -127
-43 -7 c-82 -13 -749 -196 -773 -211 -19 -13 -26 -28 -31 -68 -5 -52 -38
-6337 -33 -6343 2 -1 47 -5 101 -8 54 -4 129 -11 165 -16 37 -5 90 -10 117
-10 28 0 63 -7 79 -15 18 -10 52 -15 95 -13 36 0 107 -4 156 -10 50 -7 113
-12 142 -12 28 0 54 -4 57 -8 3 -5 47 -12 98 -17 113 -9 242 -22 283 -28 17
-2 86 -9 155 -16 69 -7 204 -21 300 -32 96 -11 216 -24 265 -28 50 -5 155 -16
235 -25 158 -18 229 -26 515 -57 105 -11 267 -29 360 -39 216 -24 325 -36 555
-61 303 -32 1178 -127 1275 -139 50 -6 522 -58 1050 -116 528 -57 1078 -118
1223 -134 251 -27 265 -28 292 -12 15 10 110 96 210 192 318 306 357 342 793
753 l428 402 -7 3090 c-3 1700 -8 3092 -10 3094 -2 2 -117 12 -256 22 -139 10
-281 23 -315 29 l-62 12 -3 120 c-3 116 -4 122 -28 140 -18 13 -49 21 -100 24
-41 3 -82 8 -90 11 -8 3 -25 5 -37 4 -13 -1 -28 1 -35 5 -6 4 -61 6 -120 5
-69 -2 -114 2 -122 9 -24 19 -845 -1 -906 -23 -8 -3 -44 -8 -79 -10 -104 -9
-141 -48 -141 -154 l0 -63 -62 0 c-47 0 -2539 90 -2848 102 l-65 3 -5 70 c-3
39 -9 77 -15 85 -22 34 -106 56 -260 70 -102 9 -999 13 -1007 4z m920 -83 c28
-1 42 -5 42 -14 0 -19 -145 -27 -485 -27 -340 0 -485 8 -485 27 0 9 16 13 53
14 28 1 133 4 232 8 99 3 275 3 390 0 116 -4 229 -7 253 -8z m4577 -79 c55 -6
111 -10 125 -11 54 -2 -38 -39 -115 -46 -16 -1 -34 -4 -40 -5 -5 -1 -38 -1
-73 0 -35 1 -69 -4 -77 -10 -13 -11 -323 -8 -515 5 -47 4 -98 6 -114 5 -15 0
-33 4 -40 9 -6 5 -30 12 -53 16 -24 4 -43 10 -43 15 0 10 77 20 159 20 36 0
73 5 81 10 19 12 563 6 705 -8z m-4299 -48 c22 -46 12 -65 -47 -82 -24 -8 -58
-20 -76 -28 -17 -8 -35 -14 -41 -14 -8 0 -44 -15 -157 -65 -16 -7 -41 -17 -55
-20 -14 -4 -33 -14 -42 -23 -10 -8 -18 -12 -18 -9 0 4 -15 -2 -32 -13 -66 -40
-84 -43 -248 -47 -145 -4 -169 -2 -200 14 l-35 18 -5 88 c-5 87 -13 106 -48
107 -7 0 -23 7 -37 16 -19 13 -181 32 -277 34 -10 0 -18 5 -18 10 0 6 10 10
22 10 12 0 37 5 55 12 27 10 38 10 53 0 25 -15 915 -18 925 -2 3 5 16 10 28
11 12 0 59 2 105 4 46 2 86 6 89 9 17 17 44 3 59 -30z m3479 -94 c308 -18
1004 -2 1107 25 19 5 31 2 47 -14 18 -18 21 -33 21 -116 0 -85 -2 -96 -22
-115 -13 -11 -34 -23 -48 -26 -14 -3 -32 -8 -40 -11 -8 -3 -30 -5 -47 -4 -18
2 -38 -1 -44 -5 -7 -4 -47 -6 -89 -5 -47 1 -81 -2 -85 -8 -10 -16 -310 -15
-323 2 -5 6 -12 36 -14 65 -7 71 -30 93 -105 104 -32 5 -69 11 -83 13 -56 12
-195 25 -375 35 -201 11 -233 20 -209 57 13 21 53 33 74 23 8 -4 114 -13 235
-20z m-4854 -1 c139 -12 208 -27 199 -44 -3 -6 -16 -10 -30 -11 -14 0 -30 -3
-36 -6 -5 -4 -104 -10 -219 -14 -116 -3 -215 -11 -222 -16 -23 -18 -803 22
-803 42 0 13 29 32 39 26 6 -4 18 -2 28 4 10 6 61 14 113 19 143 13 778 13
931 0z m2064 -69 c6 -5 174 -11 375 -15 207 -4 370 -12 377 -17 7 -5 21 -7 31
-4 24 8 50 -18 30 -30 -7 -5 -19 -9 -26 -10 -6 -1 -25 -13 -41 -26 -16 -12
-46 -34 -66 -48 -77 -53 -143 -106 -227 -182 -47 -43 -90 -78 -95 -78 -5 0
-42 -34 -83 -76 -100 -102 -120 -113 -173 -103 -23 4 -109 8 -192 9 -244 1
-695 19 -714 29 -9 5 -186 13 -393 17 -207 4 -381 10 -386 13 -17 10 -1 61 22
73 11 6 46 33 76 61 30 27 70 56 88 65 17 9 32 19 32 24 0 4 15 14 33 23 17 8
40 19 50 25 9 5 25 15 35 20 9 6 35 19 57 30 23 10 44 23 49 27 4 4 11 8 14 8
4 0 23 10 42 22 19 12 49 25 65 29 17 4 46 15 65 25 46 23 121 53 134 54 6 1
18 4 26 7 112 46 119 47 460 41 179 -3 330 -9 335 -13z m-3237 -52 c26 -26
757 -50 1017 -33 50 3 160 9 246 14 93 5 164 14 176 21 32 21 69 6 77 -31 10
-54 6 -183 -7 -209 -14 -28 -59 -40 -169 -45 -37 -2 -72 -6 -78 -10 -30 -19
-711 -42 -745 -26 -11 5 -85 12 -165 16 -223 10 -404 30 -413 46 -1 2 -8 14
-14 26 -17 29 -17 175 -1 191 7 7 9 12 5 12 -4 0 -3 9 3 20 12 22 49 27 68 8z
m4308 4 c15 -9 52 -95 54 -124 5 -57 0 -66 -47 -88 -26 -12 -54 -23 -64 -25
-9 -2 -31 -11 -48 -19 -16 -9 -37 -16 -46 -16 -14 0 -84 -28 -127 -51 -10 -5
-24 -6 -31 -3 -8 3 -17 -2 -20 -10 -4 -9 -15 -16 -26 -16 -11 0 -23 -5 -26
-11 -4 -6 -13 -8 -20 -5 -7 2 -29 -4 -49 -15 -20 -10 -44 -19 -54 -19 -9 0
-34 -9 -55 -20 -43 -23 -87 -26 -87 -6 0 15 148 156 163 156 5 0 41 26 81 58
39 31 79 62 87 67 9 6 42 27 73 48 31 20 62 37 69 37 6 0 23 9 37 20 14 11 34
20 45 20 11 0 31 7 45 14 31 17 32 17 46 8z m1790 -27 c66 -2 128 -7 137 -11
23 -9 21 -24 -3 -24 -11 0 -20 -4 -20 -9 0 -4 -37 -14 -82 -20 -102 -15 -621
-36 -645 -26 -10 4 -81 8 -158 9 -217 5 -370 33 -351 65 3 5 110 9 238 11 128
1 256 6 283 10 48 7 352 5 601 -5z m-1369 -104 c9 -11 13 -57 12 -158 -1 -129
1 -145 20 -168 11 -15 25 -24 31 -20 6 4 16 2 23 -3 23 -18 198 -41 392 -51
332 -18 1051 -3 1092 22 6 4 29 9 52 13 84 13 115 29 128 65 7 19 12 57 12 85
1 75 27 96 117 94 38 -1 76 0 84 3 8 3 98 8 200 11 101 4 189 11 194 16 4 4
14 6 20 4 7 -3 26 2 42 11 16 8 41 15 56 15 15 0 29 4 32 9 5 8 22 8 181 -5
l80 -6 -90 -46 c-49 -25 -162 -78 -250 -119 -88 -41 -182 -85 -210 -98 -27
-13 -64 -27 -82 -30 -17 -3 -37 -12 -43 -20 -6 -8 -26 -17 -43 -21 -18 -3 -43
-15 -56 -25 -13 -11 -33 -19 -45 -19 -11 0 -36 -9 -54 -20 -18 -11 -37 -20
-43 -20 -5 0 -28 -9 -51 -20 -38 -18 -51 -19 -247 -10 -113 5 -399 14 -636 20
-236 5 -459 12 -495 15 -95 8 -564 24 -1040 35 -228 6 -418 14 -423 19 -5 5 8
14 30 21 21 7 43 17 48 24 6 6 51 24 100 40 84 27 143 51 206 82 14 7 48 18
75 24 27 6 55 17 64 24 8 8 31 16 51 20 21 4 42 13 48 20 7 8 34 17 61 21 39
5 54 13 70 35 22 31 26 55 10 65 -6 4 -8 15 -5 25 3 10 1 21 -5 25 -26 16 0
20 132 16 118 -2 144 -6 155 -20z m273 -34 c82 -13 1148 -21 1164 -8 6 5 45
12 86 15 41 4 87 9 101 12 47 9 59 -15 59 -122 0 -53 -4 -103 -10 -113 -16
-32 -87 -52 -199 -58 -58 -3 -111 -10 -118 -15 -14 -11 -703 -24 -729 -14 -11
5 -62 9 -114 11 -148 4 -333 24 -341 37 -4 6 -11 8 -16 5 -6 -4 -22 -1 -36 6
-22 10 -26 20 -32 74 -4 35 -3 92 0 128 l7 65 57 -6 c31 -4 85 -11 121 -17z
m-3260 -9 c43 -14 55 -43 23 -55 -21 -8 -174 -136 -218 -182 -54 -58 -68 -61
-295 -61 -224 0 -813 15 -1355 33 l-340 12 125 34 c69 18 140 40 159 49 28 13
41 14 85 3 28 -7 96 -17 151 -22 55 -6 107 -13 115 -16 40 -14 791 -26 804
-13 5 5 59 10 120 11 61 0 165 7 231 15 66 8 133 16 149 17 16 1 31 8 34 15 2
6 12 12 22 12 23 0 40 28 40 64 0 79 59 112 150 84z m5973 -2325 c4 -1197 7
-2506 7 -2908 l0 -732 -591 -557 c-325 -306 -593 -556 -595 -554 -2 2 -1 1437
3 3189 l6 3184 576 277 c317 153 579 278 582 278 3 0 9 -979 12 -2177z m-7863
1862 c267 -9 491 -18 498 -20 9 -4 12 -618 12 -3030 0 -2874 -1 -3025 -17
-3025 -42 -1 -1159 124 -1165 129 -4 4 -1 1307 7 2896 8 1590 15 2929 15 2978
l0 87 83 0 c45 0 300 -7 567 -15z m1215 -40 c226 -8 411 -15 413 -15 1 0 2
-146 2 -323 0 -313 1 -325 20 -342 18 -16 42 -19 163 -22 78 -3 149 -7 157
-10 8 -3 68 -4 133 -3 66 1 123 -3 130 -8 7 -6 159 -15 342 -22 182 -6 341
-15 355 -20 14 -5 108 -12 210 -16 102 -3 188 -8 193 -11 18 -10 249 -4 263 8
12 9 14 69 14 361 l0 350 93 -6 c50 -3 344 -13 652 -22 308 -8 575 -17 593
-20 l32 -5 0 -1310 c0 -1281 0 -1311 -20 -1348 -20 -40 -36 -51 -73 -51 -12 0
-38 -8 -57 -19 -19 -10 -53 -21 -75 -25 -56 -10 -122 -46 -134 -74 -7 -15 -11
-166 -11 -435 0 -357 2 -416 16 -435 21 -30 53 -46 91 -44 17 2 34 -2 38 -8 3
-6 10 -8 15 -5 5 3 11 1 15 -5 3 -5 14 -10 23 -10 9 0 30 -7 46 -15 15 -8 32
-13 36 -10 4 3 20 -2 36 -9 55 -29 54 15 54 -1343 0 -688 -3 -1254 -7 -1256
-5 -2 -991 105 -2193 237 l-2185 242 -3 3032 -2 3032 107 0 c60 0 293 -7 518
-15z m1400 -45 c347 -11 696 -22 778 -26 l147 -6 0 -288 c0 -190 -4 -298 -11
-320 l-12 -33 -205 7 c-113 4 -212 11 -221 15 -9 5 -139 11 -290 15 -151 4
-279 10 -285 13 -13 8 -37 10 -406 23 -162 5 -303 14 -312 20 -10 5 -29 10
-43 10 -50 0 -55 32 -55 323 0 145 3 267 7 271 5 4 69 5 143 1 74 -3 419 -14
765 -25z m3314 -107 l563 -17 -7 -3261 c-4 -1793 -9 -3262 -10 -3263 -4 -4
-1386 145 -1422 153 l-23 5 0 3207 0 3206 168 -6 c92 -3 421 -14 731 -24z
m-964 -2789 c13 -31 15 -102 15 -437 0 -355 -2 -405 -17 -439 -12 -28 -21 -37
-33 -32 -8 4 -35 10 -59 15 -25 5 -55 16 -67 24 -13 8 -33 15 -45 15 -12 0
-31 7 -41 17 -17 15 -18 41 -18 393 l0 376 29 28 c16 16 34 25 41 21 6 -4 18
-1 27 7 9 7 17 12 17 10 1 -4 48 13 81 27 38 18 54 12 70 -25z"/>
</g>
</svg>
