<?xml version="1.0" standalone="no"?>
<!DOCTYPE svg PUBLIC "-//W3C//DTD SVG 20010904//EN"
 "http://www.w3.org/TR/2001/REC-SVG-20010904/DTD/svg10.dtd">
<svg version="1.0" xmlns="http://www.w3.org/2000/svg"
 width="960.000000pt" height="960.000000pt" viewBox="0 0 960.000000 960.000000"
 preserveAspectRatio="xMidYMid meet">
<metadata>
Created by potrace 1.16, written by Peter Selinger 2001-2019
</metadata>
<g transform="translate(0.000000,960.000000) scale(0.100000,-0.100000)"
fill="#000000" stroke="none">
<path d="M2668 8654 c-4 -3 -37 -7 -75 -9 -110 -5 -199 -28 -233 -60 -25 -24
-30 -37 -30 -77 0 -38 -4 -50 -17 -54 -10 -3 -26 -10 -36 -15 -14 -8 -580 -14
-760 -9 -22 0 -44 -4 -51 -9 -6 -5 -54 -13 -106 -17 -52 -3 -105 -13 -117 -20
-12 -8 -29 -14 -37 -14 -8 0 -22 -7 -31 -16 -14 -15 -16 -34 -9 -149 4 -93 3
-138 -5 -153 -13 -24 -94 -67 -109 -58 -5 3 -23 -1 -40 -10 -17 -8 -53 -19
-79 -24 -26 -4 -79 -18 -118 -30 -38 -13 -81 -23 -95 -24 -14 -1 -45 -12 -69
-25 -24 -13 -52 -20 -64 -17 -12 3 -27 0 -34 -6 -7 -6 -13 -7 -13 -3 0 4 -6 3
-12 -3 -7 -5 -38 -15 -69 -21 -35 -7 -65 -21 -78 -35 l-21 -23 0 -3139 c0
-1726 3 -3149 6 -3162 7 -24 30 -33 84 -30 19 1 67 -4 105 -10 39 -6 93 -12
120 -12 28 0 64 -7 80 -16 24 -12 46 -14 108 -9 49 5 82 3 90 -3 7 -6 64 -14
127 -18 63 -3 120 -11 127 -16 7 -6 32 -9 55 -7 24 1 54 -1 68 -5 14 -3 70
-11 125 -15 55 -5 118 -11 140 -14 128 -18 225 -27 340 -32 72 -4 137 -9 145
-12 8 -4 26 -8 40 -9 14 -2 57 -8 95 -13 39 -6 102 -10 140 -10 39 -1 75 -5
80 -9 14 -13 427 -52 458 -44 4 1 16 -2 26 -7 9 -5 84 -15 167 -21 82 -6 183
-18 224 -25 41 -8 125 -17 185 -21 61 -4 115 -10 121 -15 5 -5 89 -13 185 -19
96 -6 199 -15 229 -20 30 -6 109 -15 175 -20 66 -5 156 -14 200 -20 44 -5 116
-15 160 -20 44 -6 138 -15 208 -20 71 -5 134 -14 142 -20 7 -6 35 -11 62 -10
81 0 280 -18 300 -29 10 -5 95 -15 190 -20 94 -6 193 -15 220 -21 53 -11 358
-40 414 -40 20 0 39 -3 43 -7 3 -4 29 -6 57 -4 27 1 56 -2 62 -7 7 -6 95 -16
197 -22 102 -7 195 -16 208 -21 13 -5 38 -9 57 -9 19 0 56 -4 82 -10 26 -5 84
-11 128 -14 44 -3 109 -10 145 -16 36 -5 112 -12 170 -16 58 -4 110 -11 117
-16 6 -5 40 -9 75 -9 79 0 274 -21 284 -31 12 -12 67 -9 92 5 25 14 153 139
728 709 204 202 375 368 379 368 12 0 275 263 275 276 0 6 7 17 15 24 12 10
14 390 11 3038 -2 1665 -7 3035 -11 3045 -13 32 -55 38 -270 42 -365 5 -353
-1 -357 194 -3 130 -4 134 -28 153 -18 13 -49 21 -100 24 -41 3 -82 8 -90 11
-8 3 -25 5 -37 4 -13 -1 -28 1 -35 5 -6 4 -61 6 -120 5 -69 -2 -114 2 -122 9
-24 19 -845 -1 -906 -23 -8 -3 -44 -8 -79 -10 -104 -9 -141 -48 -141 -153 0
-88 0 -89 -200 -90 -92 -1 -174 -5 -181 -10 -8 -5 -193 -9 -412 -8 l-397 1
-26 24 c-26 24 -26 24 -290 27 -145 2 -264 6 -264 10 0 4 -71 8 -157 9 -87 1
-351 6 -586 11 -505 11 -467 1 -467 126 -1 48 -6 87 -13 96 -28 34 -109 56
-262 70 -102 9 -999 13 -1007 4z m920 -83 c28 -1 42 -5 42 -14 0 -19 -145 -27
-485 -27 -340 0 -485 8 -485 27 0 9 16 13 53 14 28 1 133 4 232 8 99 3 275 3
390 0 116 -4 229 -7 253 -8z m4577 -79 c55 -6 111 -10 125 -11 54 -2 -38 -39
-115 -46 -16 -1 -34 -4 -40 -5 -5 -1 -38 -1 -73 0 -35 1 -69 -4 -77 -10 -13
-11 -323 -8 -515 5 -47 4 -98 6 -114 5 -15 0 -33 4 -40 9 -6 5 -30 12 -53 16
-24 4 -43 10 -43 15 0 10 77 20 159 20 36 0 73 5 81 10 19 12 563 6 705 -8z
m-4299 -48 c22 -46 12 -65 -47 -82 -24 -8 -58 -20 -76 -28 -17 -8 -35 -14 -41
-14 -8 0 -44 -15 -157 -65 -16 -7 -41 -17 -55 -20 -14 -4 -33 -14 -42 -23 -10
-8 -18 -12 -18 -9 0 4 -15 -2 -32 -13 -66 -40 -84 -43 -248 -47 -145 -4 -169
-2 -200 14 l-35 18 -5 88 c-5 87 -13 106 -48 107 -7 0 -23 7 -37 16 -19 13
-181 32 -277 34 -10 0 -18 5 -18 10 0 6 10 10 22 10 12 0 37 5 55 12 27 10 38
10 53 0 25 -15 915 -18 925 -2 3 5 16 10 28 11 12 0 59 2 105 4 46 2 86 6 89
9 17 17 44 3 59 -30z m3479 -94 c308 -18 1004 -2 1107 25 19 5 31 2 47 -14 18
-18 21 -33 21 -116 0 -85 -2 -96 -22 -115 -13 -11 -34 -23 -48 -26 -14 -3 -32
-8 -40 -11 -8 -3 -30 -5 -47 -4 -18 2 -38 -1 -44 -5 -7 -4 -47 -6 -89 -5 -47
1 -81 -2 -85 -8 -10 -16 -310 -15 -323 2 -5 6 -12 36 -14 65 -7 71 -30 93
-105 104 -32 5 -69 11 -83 13 -56 12 -195 25 -375 35 -201 11 -233 20 -209 57
13 21 53 33 74 23 8 -4 114 -13 235 -20z m-4854 -1 c139 -12 208 -27 199 -44
-3 -6 -16 -10 -30 -11 -14 0 -30 -3 -36 -6 -5 -4 -104 -10 -219 -14 -116 -3
-215 -11 -222 -16 -23 -18 -803 22 -803 42 0 13 29 32 39 26 6 -4 18 -2 28 4
10 6 61 14 113 19 143 13 778 13 931 0z m2064 -69 c6 -5 174 -11 375 -15 207
-4 370 -12 377 -17 7 -5 21 -7 31 -4 24 8 50 -18 30 -30 -7 -5 -19 -9 -26 -10
-6 -1 -25 -13 -41 -26 -16 -12 -46 -34 -66 -48 -77 -53 -143 -106 -227 -182
-47 -43 -90 -78 -95 -78 -5 0 -44 -36 -88 -81 -44 -44 -92 -87 -107 -95 -31
-16 -74 -18 -83 -4 -4 6 -69 10 -163 10 -241 0 -701 19 -721 29 -9 5 -186 13
-393 17 -207 4 -381 10 -386 13 -17 10 -1 61 22 73 11 6 46 33 76 61 30 27 70
56 88 65 17 9 32 19 32 24 0 4 15 14 33 23 17 8 40 19 50 25 9 5 25 15 35 20
9 6 35 19 57 30 23 10 44 23 49 27 4 4 11 8 14 8 4 0 23 10 42 22 19 12 49 25
65 29 17 4 46 15 65 25 46 23 121 53 134 54 6 1 18 4 26 7 112 46 119 47 460
41 179 -3 330 -9 335 -13z m-3237 -52 c26 -26 757 -50 1017 -33 50 3 160 9
246 14 93 5 164 14 176 21 32 21 69 6 77 -31 10 -54 6 -183 -7 -209 -14 -28
-59 -40 -169 -45 -37 -2 -72 -6 -78 -10 -30 -19 -711 -42 -745 -26 -11 5 -85
12 -165 16 -223 10 -404 30 -413 46 -1 2 -8 14 -14 26 -17 29 -17 175 -1 191
7 7 9 12 5 12 -4 0 -3 9 3 20 12 22 49 27 68 8z m4308 4 c15 -9 52 -95 54
-124 5 -57 0 -66 -47 -88 -26 -12 -54 -23 -64 -25 -9 -2 -31 -11 -48 -19 -16
-9 -37 -16 -46 -16 -14 0 -84 -28 -127 -51 -10 -5 -24 -6 -31 -3 -8 3 -17 -2
-20 -10 -4 -9 -15 -16 -26 -16 -11 0 -23 -5 -26 -11 -4 -6 -13 -8 -20 -5 -7 2
-29 -4 -49 -15 -20 -10 -44 -19 -54 -19 -9 0 -34 -9 -55 -20 -43 -23 -87 -26
-87 -6 0 15 148 156 163 156 5 0 41 26 81 58 39 31 79 62 87 67 9 6 42 27 73
48 31 20 62 37 69 37 6 0 23 9 37 20 14 11 34 20 45 20 11 0 31 7 45 14 31 17
32 17 46 8z m1790 -27 c66 -2 128 -7 137 -11 23 -9 21 -24 -3 -24 -11 0 -20
-4 -20 -9 0 -4 -37 -14 -82 -20 -102 -15 -621 -36 -645 -26 -10 4 -81 8 -158
9 -224 5 -370 33 -349 68 4 6 25 8 50 5 24 -2 44 -1 44 4 0 14 683 17 1026 4z
m-1383 -12 c4 -2 7 -24 7 -48 0 -24 5 -47 10 -50 7 -4 10 -60 9 -151 -1 -131
1 -146 20 -169 11 -15 25 -24 31 -20 6 4 16 2 23 -3 23 -18 198 -41 392 -51
332 -18 1051 -3 1092 22 6 4 29 9 52 13 84 13 115 29 128 65 7 19 12 57 12 85
1 75 27 96 117 94 38 -1 76 0 84 3 8 3 98 8 200 11 101 4 189 11 194 16 4 4
14 6 20 4 7 -3 26 2 42 11 16 8 41 15 55 15 14 0 36 11 49 25 13 14 30 25 37
25 7 0 22 5 32 12 15 9 25 9 46 0 14 -7 64 -12 111 -12 82 0 124 -10 124 -30
0 -6 -5 -10 -11 -10 -16 0 -81 -31 -101 -48 -10 -8 -18 -12 -18 -7 0 4 -7 2
-15 -5 -8 -6 -18 -9 -23 -6 -6 3 -15 -1 -22 -9 -7 -8 -20 -15 -30 -15 -10 0
-47 -15 -84 -34 -58 -30 -119 -57 -136 -60 -13 -2 -152 -63 -220 -96 -19 -10
-51 -20 -71 -24 -21 -4 -42 -13 -49 -21 -6 -7 -26 -17 -43 -21 -18 -3 -43 -15
-56 -25 -13 -11 -33 -19 -45 -19 -11 0 -36 -9 -54 -20 -18 -11 -37 -20 -43
-20 -5 0 -29 -9 -51 -20 -36 -17 -62 -20 -200 -20 -87 0 -158 3 -158 8 0 4
-71 8 -157 9 -158 1 -779 18 -968 26 -55 3 -164 5 -243 5 -78 1 -148 4 -154 8
-6 4 -69 6 -140 5 -73 -1 -134 2 -141 7 -7 6 -147 11 -339 14 -228 2 -330 6
-338 14 -9 9 -2 15 27 24 21 7 43 17 48 24 6 6 51 24 100 40 84 27 143 51 206
82 14 7 48 18 75 24 27 6 55 17 64 24 8 8 31 16 51 20 21 4 42 13 48 20 7 8
34 17 61 21 39 5 54 13 70 35 22 31 26 55 10 65 -6 4 -8 15 -5 25 3 10 1 21
-5 25 -14 9 -13 78 3 94 9 9 41 11 137 6 69 -4 128 -9 133 -12z m287 -126 c82
-13 1148 -21 1164 -8 6 5 45 12 86 15 41 4 87 9 101 12 47 9 59 -15 59 -122 0
-53 -4 -103 -10 -113 -16 -32 -87 -52 -199 -58 -58 -3 -111 -10 -118 -15 -14
-11 -703 -24 -729 -14 -11 5 -62 9 -114 11 -148 4 -333 24 -341 37 -4 6 -11 8
-16 5 -6 -4 -22 -1 -36 6 -22 10 -26 20 -32 74 -4 35 -3 92 0 128 l7 65 57 -6
c31 -4 85 -11 121 -17z m-3260 -9 c43 -14 55 -43 23 -55 -21 -8 -174 -136
-218 -182 -59 -63 -32 -61 -672 -61 -320 0 -583 3 -583 8 0 4 -82 8 -182 9
-171 2 -680 18 -685 21 -9 6 0 22 12 22 8 0 39 11 69 25 30 14 64 25 75 25 10
0 39 8 63 19 24 10 67 22 95 26 29 4 57 13 64 21 10 12 14 12 28 1 33 -29 166
-65 261 -72 52 -4 99 -10 103 -12 23 -14 788 -26 801 -13 5 5 59 10 120 11 61
0 165 7 231 15 66 8 133 16 149 17 16 1 31 8 34 15 2 6 12 12 22 12 23 0 40
28 40 64 0 79 59 112 150 84z m6069 -32 c8 -10 10 -792 9 -2987 l-3 -2974
-455 -450 c-860 -851 -783 -779 -810 -765 -20 11 -20 36 -20 3315 l0 3304 21
35 c19 33 45 50 65 44 8 -2 45 14 204 91 30 14 62 26 70 26 8 1 33 9 55 20
127 60 151 70 165 70 14 1 117 48 211 96 20 11 46 19 57 19 10 0 30 8 43 18
13 10 43 24 67 31 23 6 42 16 42 21 0 4 19 11 43 15 23 4 53 16 66 26 13 11
31 19 40 19 9 0 30 9 46 19 36 23 68 26 84 7z m-8139 -316 c19 -5 171 -11 337
-12 l301 -3 26 -24 26 -24 0 -3106 c-1 -2699 -3 -3109 -15 -3125 -11 -15 -27
-19 -67 -19 -56 0 -178 15 -263 32 -27 5 -80 10 -116 10 -36 1 -69 4 -73 8 -3
4 -32 7 -64 8 -31 1 -77 7 -102 13 -25 6 -81 11 -126 12 -44 0 -84 3 -87 7 -4
3 -41 5 -82 4 -41 -1 -80 1 -87 5 -7 4 -21 9 -32 10 -49 6 -107 22 -121 34
-13 11 -15 350 -15 3085 l0 3073 21 13 c16 11 70 13 262 11 133 -1 258 -7 277
-12z m1787 -42 l23 -21 0 -377 c0 -366 1 -377 20 -395 18 -16 42 -19 163 -22
78 -3 149 -7 157 -10 8 -3 68 -4 133 -3 66 1 123 -3 130 -8 7 -6 159 -15 342
-22 182 -6 341 -15 355 -20 14 -5 108 -12 210 -16 102 -3 188 -8 193 -11 18
-10 249 -4 263 8 12 10 14 73 14 391 0 321 2 384 15 409 l16 29 267 -6 c147
-3 278 -9 292 -14 14 -5 156 -11 315 -14 160 -4 321 -9 359 -13 118 -11 106
145 106 -1406 0 -1308 0 -1339 -20 -1376 -20 -40 -36 -51 -73 -51 -12 0 -38
-8 -57 -19 -19 -10 -53 -21 -75 -25 -56 -10 -122 -46 -134 -74 -7 -15 -11
-166 -11 -435 0 -357 2 -416 16 -435 21 -30 53 -46 91 -44 17 2 34 -2 38 -8 3
-6 10 -8 15 -5 5 3 11 1 15 -5 3 -5 14 -10 23 -10 9 0 30 -7 46 -15 15 -8 32
-13 36 -10 4 3 20 -2 36 -9 56 -30 54 17 53 -1366 0 -1189 -1 -1277 -17 -1310
-16 -32 -21 -35 -58 -34 -22 0 -49 4 -60 8 -10 5 -62 9 -114 11 -52 1 -124 8
-160 14 -36 6 -114 16 -175 20 -60 5 -128 14 -150 20 -22 6 -77 11 -122 11
-45 0 -84 4 -87 9 -7 11 -73 19 -249 32 -78 5 -176 14 -217 20 -41 5 -122 14
-180 19 -58 5 -145 14 -195 20 -49 5 -135 14 -190 20 -55 6 -107 13 -115 16
-8 4 -41 6 -72 4 -32 -1 -63 2 -69 5 -6 4 -36 8 -67 10 -31 1 -86 8 -122 14
-36 6 -126 15 -200 20 -74 6 -164 15 -200 21 -36 6 -114 15 -175 20 -130 11
-252 27 -274 36 -9 3 -46 5 -83 4 -37 -1 -73 2 -79 6 -7 4 -46 8 -88 9 -42 1
-107 7 -146 14 -38 6 -117 15 -175 21 -167 16 -304 34 -318 43 -7 5 -41 7 -76
6 -34 -1 -68 1 -74 5 -7 4 -16 5 -21 2 -5 -3 -20 4 -35 15 l-26 20 0 3124 0
3124 28 15 c23 13 100 15 496 16 469 0 470 0 493 -22z m373 2 c3 0 106 -2 230
-4 191 -4 715 -28 730 -35 3 -1 68 -4 145 -6 77 -2 201 -7 275 -10 194 -9 179
24 180 -386 0 -221 -4 -337 -11 -359 l-12 -33 -205 7 c-113 4 -212 11 -221 15
-9 5 -139 11 -290 15 -151 4 -279 10 -285 13 -13 8 -37 10 -406 23 -162 5
-303 14 -312 20 -10 5 -29 10 -43 10 -51 0 -55 28 -55 373 0 392 -13 363 156
360 66 -2 121 -3 124 -3z m3873 -142 c11 -5 172 -12 364 -15 319 -6 346 -8
369 -25 l24 -19 0 -3355 c0 -2975 -2 -3354 -15 -3354 -8 0 -15 -4 -15 -10 0
-6 -28 -10 -65 -10 -36 0 -65 4 -65 9 0 4 -12 9 -27 9 -16 0 -59 5 -98 11 -38
5 -100 10 -137 10 -37 1 -70 6 -73 12 -4 6 -32 10 -64 9 -31 -1 -60 -1 -66 0
-12 3 -34 5 -217 22 -75 7 -140 16 -143 20 -4 3 -22 4 -41 1 -19 -3 -39 -1
-46 5 -7 6 -70 13 -140 17 -71 4 -128 11 -128 15 0 4 -17 8 -37 9 -137 6 -173
13 -188 34 -13 19 -15 405 -15 3298 l0 3276 22 28 21 27 381 -7 c212 -4 389
-12 399 -17z m-888 -2914 c13 -31 15 -102 15 -437 0 -355 -2 -405 -17 -439
-12 -28 -21 -37 -33 -32 -8 4 -35 10 -59 15 -25 5 -55 16 -67 24 -13 8 -33 15
-45 15 -12 0 -31 7 -41 17 -17 15 -18 41 -18 393 l0 376 29 28 c16 16 34 25
41 21 6 -4 18 -1 27 7 9 7 17 12 17 10 1 -4 48 13 81 27 38 18 54 12 70 -25z"/>
</g>
</svg>
